<svg version="1.0" xmlns="http://www.w3.org/2000/svg"
 width="1080.000000pt" height="1080.000000pt" viewBox="0 0 1080.000000 1080.000000"
 preserveAspectRatio="xMidYMid meet">

<g transform="translate(0.000000,1080.000000) scale(0.100000,-0.100000)"
fill="#ffffff" stroke="none">
<path d="M5115 9949 c-447 -28 -849 -106 -1275 -249 -1368 -458 -2462 -1500
-2993 -2850 -559 -1421 -413 -3045 391 -4348 394 -640 954 -1200 1592 -1592
408 -251 819 -429 1295 -563 144 -40 156 -41 290 -41 128 0 146 2 207 26 401
159 517 655 229 970 -97 105 -181 149 -386 203 -401 105 -827 301 -1160 533
-811 565 -1353 1406 -1529 2372 -45 247 -51 328 -51 670 1 255 5 352 18 450
118 832 451 1521 1017 2104 595 612 1326 975 2200 1093 168 22 675 25 840 5
731 -91 1353 -349 1907 -792 157 -125 249 -167 395 -179 149 -12 257 16 380
96 169 111 268 296 268 501 0 146 -54 288 -148 394 -117 129 -474 388 -782
565 -800 461 -1777 689 -2705 632z"/>
<path d="M5180 8209 c-227 -23 -289 -33 -540 -89 -90 -20 -370 -124 -472 -176
-82 -42 -259 -149 -314 -190 -66 -50 -188 -157 -237 -209 -59 -61 -179 -213
-221 -278 -140 -219 -240 -513 -265 -781 -10 -100 1 -419 18 -528 79 -509 323
-864 778 -1136 314 -188 662 -308 1338 -463 203 -47 304 -73 375 -96 264 -87
370 -197 370 -383 0 -99 -28 -166 -101 -244 -121 -129 -289 -186 -552 -186
-223 0 -388 35 -550 116 -148 74 -210 125 -339 284 -72 88 -143 124 -242 124
-63 0 -126 -18 -541 -147 -538 -168 -563 -177 -611 -214 -83 -63 -130 -178
-114 -278 24 -146 191 -433 362 -620 271 -297 736 -549 1203 -650 209 -46 355
-70 503 -85 129 -13 645 -13 726 -1 34 6 97 15 141 21 143 20 265 45 355 73
190 57 271 88 440 165 108 50 312 180 425 273 85 69 254 242 317 325 172 225
291 499 344 794 32 171 22 494 -21 707 -131 647 -644 1054 -1745 1383 -41 13
-94 29 -118 36 -53 17 -339 93 -402 106 -25 6 -63 14 -85 19 -22 6 -56 14 -75
18 -172 41 -370 140 -431 216 -125 156 -70 384 121 500 70 43 185 79 299 95
91 12 257 1 359 -26 113 -29 235 -107 312 -201 101 -123 142 -151 253 -173 58
-12 88 -8 197 20 19 5 112 28 205 50 176 42 212 51 280 69 22 6 117 29 210 51
228 56 249 64 315 130 79 77 95 115 95 220 0 84 -1 86 -62 210 -72 146 -160
283 -253 395 -253 304 -630 539 -1065 664 -280 80 -700 118 -985 90z"/>
<path d="M8721 3030 c-358 -50 -645 -318 -717 -670 -23 -114 -15 -306 16 -405
72 -229 227 -412 435 -515 144 -71 202 -84 375 -84 169 -1 226 12 366 79 238
115 407 329 459 583 17 79 21 240 10 308 -68 395 -392 684 -791 707 -49 3
-118 2 -153 -3z"/>
</g>
</svg>
